G75*
%MOIN*%
%OFA0B0*%
%FSLAX25Y25*%
%IPPOS*%
%LPD*%
%AMOC8*
5,1,8,0,0,1.08239X$1,22.5*
%
%ADD10C,0.00000*%
D10*
X0001000Y0020750D02*
X0001000Y0296341D01*
X0378953Y0296341D01*
X0378953Y0020750D01*
X0001000Y0020750D01*
X0023047Y0045750D02*
X0023049Y0045858D01*
X0023055Y0045967D01*
X0023065Y0046075D01*
X0023079Y0046182D01*
X0023097Y0046289D01*
X0023118Y0046396D01*
X0023144Y0046501D01*
X0023174Y0046606D01*
X0023207Y0046709D01*
X0023244Y0046811D01*
X0023285Y0046911D01*
X0023329Y0047010D01*
X0023378Y0047108D01*
X0023429Y0047203D01*
X0023484Y0047296D01*
X0023543Y0047388D01*
X0023605Y0047477D01*
X0023670Y0047564D01*
X0023738Y0047648D01*
X0023809Y0047730D01*
X0023883Y0047809D01*
X0023960Y0047885D01*
X0024040Y0047959D01*
X0024123Y0048029D01*
X0024208Y0048097D01*
X0024295Y0048161D01*
X0024385Y0048222D01*
X0024477Y0048280D01*
X0024571Y0048334D01*
X0024667Y0048385D01*
X0024764Y0048432D01*
X0024864Y0048476D01*
X0024965Y0048516D01*
X0025067Y0048552D01*
X0025170Y0048584D01*
X0025275Y0048613D01*
X0025381Y0048637D01*
X0025487Y0048658D01*
X0025594Y0048675D01*
X0025702Y0048688D01*
X0025810Y0048697D01*
X0025919Y0048702D01*
X0026027Y0048703D01*
X0026136Y0048700D01*
X0026244Y0048693D01*
X0026352Y0048682D01*
X0026459Y0048667D01*
X0026566Y0048648D01*
X0026672Y0048625D01*
X0026777Y0048599D01*
X0026882Y0048568D01*
X0026984Y0048534D01*
X0027086Y0048496D01*
X0027186Y0048454D01*
X0027285Y0048409D01*
X0027382Y0048360D01*
X0027476Y0048307D01*
X0027569Y0048251D01*
X0027660Y0048192D01*
X0027749Y0048129D01*
X0027835Y0048064D01*
X0027919Y0047995D01*
X0028000Y0047923D01*
X0028078Y0047848D01*
X0028154Y0047770D01*
X0028227Y0047689D01*
X0028297Y0047606D01*
X0028363Y0047521D01*
X0028427Y0047433D01*
X0028487Y0047342D01*
X0028544Y0047250D01*
X0028597Y0047155D01*
X0028647Y0047059D01*
X0028693Y0046961D01*
X0028736Y0046861D01*
X0028775Y0046760D01*
X0028810Y0046657D01*
X0028842Y0046554D01*
X0028869Y0046449D01*
X0028893Y0046343D01*
X0028913Y0046236D01*
X0028929Y0046129D01*
X0028941Y0046021D01*
X0028949Y0045913D01*
X0028953Y0045804D01*
X0028953Y0045696D01*
X0028949Y0045587D01*
X0028941Y0045479D01*
X0028929Y0045371D01*
X0028913Y0045264D01*
X0028893Y0045157D01*
X0028869Y0045051D01*
X0028842Y0044946D01*
X0028810Y0044843D01*
X0028775Y0044740D01*
X0028736Y0044639D01*
X0028693Y0044539D01*
X0028647Y0044441D01*
X0028597Y0044345D01*
X0028544Y0044250D01*
X0028487Y0044158D01*
X0028427Y0044067D01*
X0028363Y0043979D01*
X0028297Y0043894D01*
X0028227Y0043811D01*
X0028154Y0043730D01*
X0028078Y0043652D01*
X0028000Y0043577D01*
X0027919Y0043505D01*
X0027835Y0043436D01*
X0027749Y0043371D01*
X0027660Y0043308D01*
X0027569Y0043249D01*
X0027477Y0043193D01*
X0027382Y0043140D01*
X0027285Y0043091D01*
X0027186Y0043046D01*
X0027086Y0043004D01*
X0026984Y0042966D01*
X0026882Y0042932D01*
X0026777Y0042901D01*
X0026672Y0042875D01*
X0026566Y0042852D01*
X0026459Y0042833D01*
X0026352Y0042818D01*
X0026244Y0042807D01*
X0026136Y0042800D01*
X0026027Y0042797D01*
X0025919Y0042798D01*
X0025810Y0042803D01*
X0025702Y0042812D01*
X0025594Y0042825D01*
X0025487Y0042842D01*
X0025381Y0042863D01*
X0025275Y0042887D01*
X0025170Y0042916D01*
X0025067Y0042948D01*
X0024965Y0042984D01*
X0024864Y0043024D01*
X0024764Y0043068D01*
X0024667Y0043115D01*
X0024571Y0043166D01*
X0024477Y0043220D01*
X0024385Y0043278D01*
X0024295Y0043339D01*
X0024208Y0043403D01*
X0024123Y0043471D01*
X0024040Y0043541D01*
X0023960Y0043615D01*
X0023883Y0043691D01*
X0023809Y0043770D01*
X0023738Y0043852D01*
X0023670Y0043936D01*
X0023605Y0044023D01*
X0023543Y0044112D01*
X0023484Y0044204D01*
X0023429Y0044297D01*
X0023378Y0044392D01*
X0023329Y0044490D01*
X0023285Y0044589D01*
X0023244Y0044689D01*
X0023207Y0044791D01*
X0023174Y0044894D01*
X0023144Y0044999D01*
X0023118Y0045104D01*
X0023097Y0045211D01*
X0023079Y0045318D01*
X0023065Y0045425D01*
X0023055Y0045533D01*
X0023049Y0045642D01*
X0023047Y0045750D01*
X0023047Y0275750D02*
X0023049Y0275858D01*
X0023055Y0275967D01*
X0023065Y0276075D01*
X0023079Y0276182D01*
X0023097Y0276289D01*
X0023118Y0276396D01*
X0023144Y0276501D01*
X0023174Y0276606D01*
X0023207Y0276709D01*
X0023244Y0276811D01*
X0023285Y0276911D01*
X0023329Y0277010D01*
X0023378Y0277108D01*
X0023429Y0277203D01*
X0023484Y0277296D01*
X0023543Y0277388D01*
X0023605Y0277477D01*
X0023670Y0277564D01*
X0023738Y0277648D01*
X0023809Y0277730D01*
X0023883Y0277809D01*
X0023960Y0277885D01*
X0024040Y0277959D01*
X0024123Y0278029D01*
X0024208Y0278097D01*
X0024295Y0278161D01*
X0024385Y0278222D01*
X0024477Y0278280D01*
X0024571Y0278334D01*
X0024667Y0278385D01*
X0024764Y0278432D01*
X0024864Y0278476D01*
X0024965Y0278516D01*
X0025067Y0278552D01*
X0025170Y0278584D01*
X0025275Y0278613D01*
X0025381Y0278637D01*
X0025487Y0278658D01*
X0025594Y0278675D01*
X0025702Y0278688D01*
X0025810Y0278697D01*
X0025919Y0278702D01*
X0026027Y0278703D01*
X0026136Y0278700D01*
X0026244Y0278693D01*
X0026352Y0278682D01*
X0026459Y0278667D01*
X0026566Y0278648D01*
X0026672Y0278625D01*
X0026777Y0278599D01*
X0026882Y0278568D01*
X0026984Y0278534D01*
X0027086Y0278496D01*
X0027186Y0278454D01*
X0027285Y0278409D01*
X0027382Y0278360D01*
X0027476Y0278307D01*
X0027569Y0278251D01*
X0027660Y0278192D01*
X0027749Y0278129D01*
X0027835Y0278064D01*
X0027919Y0277995D01*
X0028000Y0277923D01*
X0028078Y0277848D01*
X0028154Y0277770D01*
X0028227Y0277689D01*
X0028297Y0277606D01*
X0028363Y0277521D01*
X0028427Y0277433D01*
X0028487Y0277342D01*
X0028544Y0277250D01*
X0028597Y0277155D01*
X0028647Y0277059D01*
X0028693Y0276961D01*
X0028736Y0276861D01*
X0028775Y0276760D01*
X0028810Y0276657D01*
X0028842Y0276554D01*
X0028869Y0276449D01*
X0028893Y0276343D01*
X0028913Y0276236D01*
X0028929Y0276129D01*
X0028941Y0276021D01*
X0028949Y0275913D01*
X0028953Y0275804D01*
X0028953Y0275696D01*
X0028949Y0275587D01*
X0028941Y0275479D01*
X0028929Y0275371D01*
X0028913Y0275264D01*
X0028893Y0275157D01*
X0028869Y0275051D01*
X0028842Y0274946D01*
X0028810Y0274843D01*
X0028775Y0274740D01*
X0028736Y0274639D01*
X0028693Y0274539D01*
X0028647Y0274441D01*
X0028597Y0274345D01*
X0028544Y0274250D01*
X0028487Y0274158D01*
X0028427Y0274067D01*
X0028363Y0273979D01*
X0028297Y0273894D01*
X0028227Y0273811D01*
X0028154Y0273730D01*
X0028078Y0273652D01*
X0028000Y0273577D01*
X0027919Y0273505D01*
X0027835Y0273436D01*
X0027749Y0273371D01*
X0027660Y0273308D01*
X0027569Y0273249D01*
X0027477Y0273193D01*
X0027382Y0273140D01*
X0027285Y0273091D01*
X0027186Y0273046D01*
X0027086Y0273004D01*
X0026984Y0272966D01*
X0026882Y0272932D01*
X0026777Y0272901D01*
X0026672Y0272875D01*
X0026566Y0272852D01*
X0026459Y0272833D01*
X0026352Y0272818D01*
X0026244Y0272807D01*
X0026136Y0272800D01*
X0026027Y0272797D01*
X0025919Y0272798D01*
X0025810Y0272803D01*
X0025702Y0272812D01*
X0025594Y0272825D01*
X0025487Y0272842D01*
X0025381Y0272863D01*
X0025275Y0272887D01*
X0025170Y0272916D01*
X0025067Y0272948D01*
X0024965Y0272984D01*
X0024864Y0273024D01*
X0024764Y0273068D01*
X0024667Y0273115D01*
X0024571Y0273166D01*
X0024477Y0273220D01*
X0024385Y0273278D01*
X0024295Y0273339D01*
X0024208Y0273403D01*
X0024123Y0273471D01*
X0024040Y0273541D01*
X0023960Y0273615D01*
X0023883Y0273691D01*
X0023809Y0273770D01*
X0023738Y0273852D01*
X0023670Y0273936D01*
X0023605Y0274023D01*
X0023543Y0274112D01*
X0023484Y0274204D01*
X0023429Y0274297D01*
X0023378Y0274392D01*
X0023329Y0274490D01*
X0023285Y0274589D01*
X0023244Y0274689D01*
X0023207Y0274791D01*
X0023174Y0274894D01*
X0023144Y0274999D01*
X0023118Y0275104D01*
X0023097Y0275211D01*
X0023079Y0275318D01*
X0023065Y0275425D01*
X0023055Y0275533D01*
X0023049Y0275642D01*
X0023047Y0275750D01*
X0348047Y0275750D02*
X0348049Y0275858D01*
X0348055Y0275967D01*
X0348065Y0276075D01*
X0348079Y0276182D01*
X0348097Y0276289D01*
X0348118Y0276396D01*
X0348144Y0276501D01*
X0348174Y0276606D01*
X0348207Y0276709D01*
X0348244Y0276811D01*
X0348285Y0276911D01*
X0348329Y0277010D01*
X0348378Y0277108D01*
X0348429Y0277203D01*
X0348484Y0277296D01*
X0348543Y0277388D01*
X0348605Y0277477D01*
X0348670Y0277564D01*
X0348738Y0277648D01*
X0348809Y0277730D01*
X0348883Y0277809D01*
X0348960Y0277885D01*
X0349040Y0277959D01*
X0349123Y0278029D01*
X0349208Y0278097D01*
X0349295Y0278161D01*
X0349385Y0278222D01*
X0349477Y0278280D01*
X0349571Y0278334D01*
X0349667Y0278385D01*
X0349764Y0278432D01*
X0349864Y0278476D01*
X0349965Y0278516D01*
X0350067Y0278552D01*
X0350170Y0278584D01*
X0350275Y0278613D01*
X0350381Y0278637D01*
X0350487Y0278658D01*
X0350594Y0278675D01*
X0350702Y0278688D01*
X0350810Y0278697D01*
X0350919Y0278702D01*
X0351027Y0278703D01*
X0351136Y0278700D01*
X0351244Y0278693D01*
X0351352Y0278682D01*
X0351459Y0278667D01*
X0351566Y0278648D01*
X0351672Y0278625D01*
X0351777Y0278599D01*
X0351882Y0278568D01*
X0351984Y0278534D01*
X0352086Y0278496D01*
X0352186Y0278454D01*
X0352285Y0278409D01*
X0352382Y0278360D01*
X0352476Y0278307D01*
X0352569Y0278251D01*
X0352660Y0278192D01*
X0352749Y0278129D01*
X0352835Y0278064D01*
X0352919Y0277995D01*
X0353000Y0277923D01*
X0353078Y0277848D01*
X0353154Y0277770D01*
X0353227Y0277689D01*
X0353297Y0277606D01*
X0353363Y0277521D01*
X0353427Y0277433D01*
X0353487Y0277342D01*
X0353544Y0277250D01*
X0353597Y0277155D01*
X0353647Y0277059D01*
X0353693Y0276961D01*
X0353736Y0276861D01*
X0353775Y0276760D01*
X0353810Y0276657D01*
X0353842Y0276554D01*
X0353869Y0276449D01*
X0353893Y0276343D01*
X0353913Y0276236D01*
X0353929Y0276129D01*
X0353941Y0276021D01*
X0353949Y0275913D01*
X0353953Y0275804D01*
X0353953Y0275696D01*
X0353949Y0275587D01*
X0353941Y0275479D01*
X0353929Y0275371D01*
X0353913Y0275264D01*
X0353893Y0275157D01*
X0353869Y0275051D01*
X0353842Y0274946D01*
X0353810Y0274843D01*
X0353775Y0274740D01*
X0353736Y0274639D01*
X0353693Y0274539D01*
X0353647Y0274441D01*
X0353597Y0274345D01*
X0353544Y0274250D01*
X0353487Y0274158D01*
X0353427Y0274067D01*
X0353363Y0273979D01*
X0353297Y0273894D01*
X0353227Y0273811D01*
X0353154Y0273730D01*
X0353078Y0273652D01*
X0353000Y0273577D01*
X0352919Y0273505D01*
X0352835Y0273436D01*
X0352749Y0273371D01*
X0352660Y0273308D01*
X0352569Y0273249D01*
X0352477Y0273193D01*
X0352382Y0273140D01*
X0352285Y0273091D01*
X0352186Y0273046D01*
X0352086Y0273004D01*
X0351984Y0272966D01*
X0351882Y0272932D01*
X0351777Y0272901D01*
X0351672Y0272875D01*
X0351566Y0272852D01*
X0351459Y0272833D01*
X0351352Y0272818D01*
X0351244Y0272807D01*
X0351136Y0272800D01*
X0351027Y0272797D01*
X0350919Y0272798D01*
X0350810Y0272803D01*
X0350702Y0272812D01*
X0350594Y0272825D01*
X0350487Y0272842D01*
X0350381Y0272863D01*
X0350275Y0272887D01*
X0350170Y0272916D01*
X0350067Y0272948D01*
X0349965Y0272984D01*
X0349864Y0273024D01*
X0349764Y0273068D01*
X0349667Y0273115D01*
X0349571Y0273166D01*
X0349477Y0273220D01*
X0349385Y0273278D01*
X0349295Y0273339D01*
X0349208Y0273403D01*
X0349123Y0273471D01*
X0349040Y0273541D01*
X0348960Y0273615D01*
X0348883Y0273691D01*
X0348809Y0273770D01*
X0348738Y0273852D01*
X0348670Y0273936D01*
X0348605Y0274023D01*
X0348543Y0274112D01*
X0348484Y0274204D01*
X0348429Y0274297D01*
X0348378Y0274392D01*
X0348329Y0274490D01*
X0348285Y0274589D01*
X0348244Y0274689D01*
X0348207Y0274791D01*
X0348174Y0274894D01*
X0348144Y0274999D01*
X0348118Y0275104D01*
X0348097Y0275211D01*
X0348079Y0275318D01*
X0348065Y0275425D01*
X0348055Y0275533D01*
X0348049Y0275642D01*
X0348047Y0275750D01*
X0348047Y0045750D02*
X0348049Y0045858D01*
X0348055Y0045967D01*
X0348065Y0046075D01*
X0348079Y0046182D01*
X0348097Y0046289D01*
X0348118Y0046396D01*
X0348144Y0046501D01*
X0348174Y0046606D01*
X0348207Y0046709D01*
X0348244Y0046811D01*
X0348285Y0046911D01*
X0348329Y0047010D01*
X0348378Y0047108D01*
X0348429Y0047203D01*
X0348484Y0047296D01*
X0348543Y0047388D01*
X0348605Y0047477D01*
X0348670Y0047564D01*
X0348738Y0047648D01*
X0348809Y0047730D01*
X0348883Y0047809D01*
X0348960Y0047885D01*
X0349040Y0047959D01*
X0349123Y0048029D01*
X0349208Y0048097D01*
X0349295Y0048161D01*
X0349385Y0048222D01*
X0349477Y0048280D01*
X0349571Y0048334D01*
X0349667Y0048385D01*
X0349764Y0048432D01*
X0349864Y0048476D01*
X0349965Y0048516D01*
X0350067Y0048552D01*
X0350170Y0048584D01*
X0350275Y0048613D01*
X0350381Y0048637D01*
X0350487Y0048658D01*
X0350594Y0048675D01*
X0350702Y0048688D01*
X0350810Y0048697D01*
X0350919Y0048702D01*
X0351027Y0048703D01*
X0351136Y0048700D01*
X0351244Y0048693D01*
X0351352Y0048682D01*
X0351459Y0048667D01*
X0351566Y0048648D01*
X0351672Y0048625D01*
X0351777Y0048599D01*
X0351882Y0048568D01*
X0351984Y0048534D01*
X0352086Y0048496D01*
X0352186Y0048454D01*
X0352285Y0048409D01*
X0352382Y0048360D01*
X0352476Y0048307D01*
X0352569Y0048251D01*
X0352660Y0048192D01*
X0352749Y0048129D01*
X0352835Y0048064D01*
X0352919Y0047995D01*
X0353000Y0047923D01*
X0353078Y0047848D01*
X0353154Y0047770D01*
X0353227Y0047689D01*
X0353297Y0047606D01*
X0353363Y0047521D01*
X0353427Y0047433D01*
X0353487Y0047342D01*
X0353544Y0047250D01*
X0353597Y0047155D01*
X0353647Y0047059D01*
X0353693Y0046961D01*
X0353736Y0046861D01*
X0353775Y0046760D01*
X0353810Y0046657D01*
X0353842Y0046554D01*
X0353869Y0046449D01*
X0353893Y0046343D01*
X0353913Y0046236D01*
X0353929Y0046129D01*
X0353941Y0046021D01*
X0353949Y0045913D01*
X0353953Y0045804D01*
X0353953Y0045696D01*
X0353949Y0045587D01*
X0353941Y0045479D01*
X0353929Y0045371D01*
X0353913Y0045264D01*
X0353893Y0045157D01*
X0353869Y0045051D01*
X0353842Y0044946D01*
X0353810Y0044843D01*
X0353775Y0044740D01*
X0353736Y0044639D01*
X0353693Y0044539D01*
X0353647Y0044441D01*
X0353597Y0044345D01*
X0353544Y0044250D01*
X0353487Y0044158D01*
X0353427Y0044067D01*
X0353363Y0043979D01*
X0353297Y0043894D01*
X0353227Y0043811D01*
X0353154Y0043730D01*
X0353078Y0043652D01*
X0353000Y0043577D01*
X0352919Y0043505D01*
X0352835Y0043436D01*
X0352749Y0043371D01*
X0352660Y0043308D01*
X0352569Y0043249D01*
X0352477Y0043193D01*
X0352382Y0043140D01*
X0352285Y0043091D01*
X0352186Y0043046D01*
X0352086Y0043004D01*
X0351984Y0042966D01*
X0351882Y0042932D01*
X0351777Y0042901D01*
X0351672Y0042875D01*
X0351566Y0042852D01*
X0351459Y0042833D01*
X0351352Y0042818D01*
X0351244Y0042807D01*
X0351136Y0042800D01*
X0351027Y0042797D01*
X0350919Y0042798D01*
X0350810Y0042803D01*
X0350702Y0042812D01*
X0350594Y0042825D01*
X0350487Y0042842D01*
X0350381Y0042863D01*
X0350275Y0042887D01*
X0350170Y0042916D01*
X0350067Y0042948D01*
X0349965Y0042984D01*
X0349864Y0043024D01*
X0349764Y0043068D01*
X0349667Y0043115D01*
X0349571Y0043166D01*
X0349477Y0043220D01*
X0349385Y0043278D01*
X0349295Y0043339D01*
X0349208Y0043403D01*
X0349123Y0043471D01*
X0349040Y0043541D01*
X0348960Y0043615D01*
X0348883Y0043691D01*
X0348809Y0043770D01*
X0348738Y0043852D01*
X0348670Y0043936D01*
X0348605Y0044023D01*
X0348543Y0044112D01*
X0348484Y0044204D01*
X0348429Y0044297D01*
X0348378Y0044392D01*
X0348329Y0044490D01*
X0348285Y0044589D01*
X0348244Y0044689D01*
X0348207Y0044791D01*
X0348174Y0044894D01*
X0348144Y0044999D01*
X0348118Y0045104D01*
X0348097Y0045211D01*
X0348079Y0045318D01*
X0348065Y0045425D01*
X0348055Y0045533D01*
X0348049Y0045642D01*
X0348047Y0045750D01*
M02*
