G75*
%MOIN*%
%OFA0B0*%
%FSLAX25Y25*%
%IPPOS*%
%LPD*%
%AMOC8*
5,1,8,0,0,1.08239X$1,22.5*
%
%ADD10C,0.00000*%
%ADD11C,0.08200*%
%ADD12OC8,0.06000*%
%ADD13OC8,0.06800*%
%ADD14C,0.09650*%
%ADD15C,0.05950*%
%ADD16C,0.05950*%
%ADD17R,0.08200X0.08200*%
%ADD18OC8,0.12611*%
%ADD19C,0.03778*%
D10*
X0001000Y0020750D02*
X0001000Y0296341D01*
X0378953Y0296341D01*
X0378953Y0020750D01*
X0001000Y0020750D01*
D11*
X0109071Y0064136D03*
X0119071Y0064136D03*
X0082063Y0107837D03*
X0072063Y0107837D03*
X0065055Y0156577D03*
X0055055Y0156577D03*
X0072063Y0208191D03*
X0082063Y0208191D03*
X0112063Y0261892D03*
X0122063Y0261892D03*
X0181039Y0280593D03*
X0191039Y0280593D03*
X0256000Y0261892D03*
X0266000Y0261892D03*
X0296000Y0208191D03*
X0306000Y0208191D03*
X0307024Y0156577D03*
X0317024Y0156577D03*
X0306000Y0107837D03*
X0296000Y0107837D03*
X0271000Y0064136D03*
X0261000Y0064136D03*
X0191039Y0040435D03*
X0181039Y0040435D03*
X0056000Y0275750D03*
X0046000Y0275750D03*
D12*
X0081000Y0275750D03*
X0081000Y0245750D03*
D13*
X0084900Y0035850D03*
X0067100Y0035850D03*
D14*
X0062200Y0045650D03*
X0089800Y0045650D03*
D15*
X0148425Y0085750D02*
X0153575Y0085750D01*
X0153575Y0095750D02*
X0148425Y0095750D01*
X0148425Y0105750D02*
X0153575Y0105750D01*
X0153575Y0115750D02*
X0148425Y0115750D01*
X0148425Y0125750D02*
X0153575Y0125750D01*
X0153575Y0135750D02*
X0148425Y0135750D01*
X0148425Y0145750D02*
X0153575Y0145750D01*
X0153575Y0155750D02*
X0148425Y0155750D01*
X0148425Y0165750D02*
X0153575Y0165750D01*
X0153575Y0175750D02*
X0148425Y0175750D01*
X0148425Y0185750D02*
X0153575Y0185750D01*
X0153575Y0195750D02*
X0148425Y0195750D01*
X0148425Y0205750D02*
X0153575Y0205750D01*
X0153575Y0215750D02*
X0148425Y0215750D01*
X0148425Y0225750D02*
X0153575Y0225750D01*
X0208425Y0225750D02*
X0213575Y0225750D01*
X0213575Y0215750D02*
X0208425Y0215750D01*
X0208425Y0205750D02*
X0213575Y0205750D01*
X0213575Y0195750D02*
X0208425Y0195750D01*
X0208425Y0185750D02*
X0213575Y0185750D01*
X0213575Y0175750D02*
X0208425Y0175750D01*
X0208425Y0165750D02*
X0213575Y0165750D01*
X0213575Y0155750D02*
X0208425Y0155750D01*
X0208425Y0145750D02*
X0213575Y0145750D01*
X0213575Y0135750D02*
X0208425Y0135750D01*
X0208425Y0125750D02*
X0213575Y0125750D01*
X0213575Y0115750D02*
X0208425Y0115750D01*
X0208425Y0105750D02*
X0213575Y0105750D01*
X0213575Y0095750D02*
X0208425Y0095750D01*
X0208425Y0085750D02*
X0213575Y0085750D01*
D16*
X0191000Y0080750D03*
X0191000Y0090750D03*
X0181000Y0090750D03*
X0171000Y0090750D03*
X0171000Y0080750D03*
X0181000Y0080750D03*
D17*
X0300843Y0038309D03*
X0310685Y0038309D03*
X0320528Y0038309D03*
D18*
X0329583Y0051301D03*
X0291000Y0051301D03*
D19*
X0191200Y0095750D03*
M02*
