%
M48
M72
T01C0.03150
T02C0.03200
T03C0.03937
T04C0.04000
T05C0.05900
T06C0.07874
T07C0.11811
%
T01
X151000Y85750
X151000Y95750
X151000Y105750
X151000Y115750
X151000Y125750
X151000Y135750
X151000Y145750
X151000Y155750
X151000Y165750
X151000Y175750
X151000Y185750
X151000Y195750
X151000Y205750
X151000Y215750
X151000Y225750
X211000Y225750
X211000Y215750
X211000Y205750
X211000Y195750
X211000Y185750
X211000Y175750
X211000Y165750
X211000Y155750
X211000Y145750
X211000Y135750
X211000Y125750
X211000Y115750
X211000Y105750
X211000Y95750
X211000Y85750
X191000Y80750
X191000Y90750
X181000Y90750
X171000Y90750
X171000Y80750
X181000Y80750
T02
X81000Y275750
X112063Y261892
X122063Y261892
X81000Y245750
X82063Y208191
X72063Y208191
X65055Y156577
X55055Y156577
X72063Y107837
X82063Y107837
X109071Y64136
X119071Y64136
X181039Y40435
X191039Y40435
X261000Y64136
X271000Y64136
X296000Y107837
X306000Y107837
X307024Y156577
X317024Y156577
X306000Y208191
X296000Y208191
X266000Y261892
X256000Y261892
X191039Y280593
X181039Y280593
T03
X300843Y38309
X310685Y38309
X320528Y38309
T04
X46000Y275750
X56000Y275750
X67100Y35850
X84900Y35850
T05
X62200Y45650
X89800Y45650
T06
X291000Y51301
X329583Y51301
T07
X26000Y45750
X26000Y275750
X351000Y275750
X351000Y45750
M30
