G75*
%MOIN*%
%OFA0B0*%
%FSLAX25Y25*%
%IPPOS*%
%LPD*%
%AMOC8*
5,1,8,0,0,1.08239X$1,22.5*
%
%ADD10C,0.00000*%
D10*
X0001000Y0020750D02*
X0001000Y0296341D01*
X0378953Y0296341D01*
X0378953Y0020750D01*
X0001000Y0020750D01*
X0020094Y0045750D02*
X0020096Y0045903D01*
X0020102Y0046057D01*
X0020112Y0046210D01*
X0020126Y0046362D01*
X0020144Y0046515D01*
X0020166Y0046666D01*
X0020191Y0046817D01*
X0020221Y0046968D01*
X0020255Y0047118D01*
X0020292Y0047266D01*
X0020333Y0047414D01*
X0020378Y0047560D01*
X0020427Y0047706D01*
X0020480Y0047850D01*
X0020536Y0047992D01*
X0020596Y0048133D01*
X0020660Y0048273D01*
X0020727Y0048411D01*
X0020798Y0048547D01*
X0020873Y0048681D01*
X0020950Y0048813D01*
X0021032Y0048943D01*
X0021116Y0049071D01*
X0021204Y0049197D01*
X0021295Y0049320D01*
X0021389Y0049441D01*
X0021487Y0049559D01*
X0021587Y0049675D01*
X0021691Y0049788D01*
X0021797Y0049899D01*
X0021906Y0050007D01*
X0022018Y0050112D01*
X0022132Y0050213D01*
X0022250Y0050312D01*
X0022369Y0050408D01*
X0022491Y0050501D01*
X0022616Y0050590D01*
X0022743Y0050677D01*
X0022872Y0050759D01*
X0023003Y0050839D01*
X0023136Y0050915D01*
X0023271Y0050988D01*
X0023408Y0051057D01*
X0023547Y0051122D01*
X0023687Y0051184D01*
X0023829Y0051242D01*
X0023972Y0051297D01*
X0024117Y0051348D01*
X0024263Y0051395D01*
X0024410Y0051438D01*
X0024558Y0051477D01*
X0024707Y0051513D01*
X0024857Y0051544D01*
X0025008Y0051572D01*
X0025159Y0051596D01*
X0025312Y0051616D01*
X0025464Y0051632D01*
X0025617Y0051644D01*
X0025770Y0051652D01*
X0025923Y0051656D01*
X0026077Y0051656D01*
X0026230Y0051652D01*
X0026383Y0051644D01*
X0026536Y0051632D01*
X0026688Y0051616D01*
X0026841Y0051596D01*
X0026992Y0051572D01*
X0027143Y0051544D01*
X0027293Y0051513D01*
X0027442Y0051477D01*
X0027590Y0051438D01*
X0027737Y0051395D01*
X0027883Y0051348D01*
X0028028Y0051297D01*
X0028171Y0051242D01*
X0028313Y0051184D01*
X0028453Y0051122D01*
X0028592Y0051057D01*
X0028729Y0050988D01*
X0028864Y0050915D01*
X0028997Y0050839D01*
X0029128Y0050759D01*
X0029257Y0050677D01*
X0029384Y0050590D01*
X0029509Y0050501D01*
X0029631Y0050408D01*
X0029750Y0050312D01*
X0029868Y0050213D01*
X0029982Y0050112D01*
X0030094Y0050007D01*
X0030203Y0049899D01*
X0030309Y0049788D01*
X0030413Y0049675D01*
X0030513Y0049559D01*
X0030611Y0049441D01*
X0030705Y0049320D01*
X0030796Y0049197D01*
X0030884Y0049071D01*
X0030968Y0048943D01*
X0031050Y0048813D01*
X0031127Y0048681D01*
X0031202Y0048547D01*
X0031273Y0048411D01*
X0031340Y0048273D01*
X0031404Y0048133D01*
X0031464Y0047992D01*
X0031520Y0047850D01*
X0031573Y0047706D01*
X0031622Y0047560D01*
X0031667Y0047414D01*
X0031708Y0047266D01*
X0031745Y0047118D01*
X0031779Y0046968D01*
X0031809Y0046817D01*
X0031834Y0046666D01*
X0031856Y0046515D01*
X0031874Y0046362D01*
X0031888Y0046210D01*
X0031898Y0046057D01*
X0031904Y0045903D01*
X0031906Y0045750D01*
X0031904Y0045597D01*
X0031898Y0045443D01*
X0031888Y0045290D01*
X0031874Y0045138D01*
X0031856Y0044985D01*
X0031834Y0044834D01*
X0031809Y0044683D01*
X0031779Y0044532D01*
X0031745Y0044382D01*
X0031708Y0044234D01*
X0031667Y0044086D01*
X0031622Y0043940D01*
X0031573Y0043794D01*
X0031520Y0043650D01*
X0031464Y0043508D01*
X0031404Y0043367D01*
X0031340Y0043227D01*
X0031273Y0043089D01*
X0031202Y0042953D01*
X0031127Y0042819D01*
X0031050Y0042687D01*
X0030968Y0042557D01*
X0030884Y0042429D01*
X0030796Y0042303D01*
X0030705Y0042180D01*
X0030611Y0042059D01*
X0030513Y0041941D01*
X0030413Y0041825D01*
X0030309Y0041712D01*
X0030203Y0041601D01*
X0030094Y0041493D01*
X0029982Y0041388D01*
X0029868Y0041287D01*
X0029750Y0041188D01*
X0029631Y0041092D01*
X0029509Y0040999D01*
X0029384Y0040910D01*
X0029257Y0040823D01*
X0029128Y0040741D01*
X0028997Y0040661D01*
X0028864Y0040585D01*
X0028729Y0040512D01*
X0028592Y0040443D01*
X0028453Y0040378D01*
X0028313Y0040316D01*
X0028171Y0040258D01*
X0028028Y0040203D01*
X0027883Y0040152D01*
X0027737Y0040105D01*
X0027590Y0040062D01*
X0027442Y0040023D01*
X0027293Y0039987D01*
X0027143Y0039956D01*
X0026992Y0039928D01*
X0026841Y0039904D01*
X0026688Y0039884D01*
X0026536Y0039868D01*
X0026383Y0039856D01*
X0026230Y0039848D01*
X0026077Y0039844D01*
X0025923Y0039844D01*
X0025770Y0039848D01*
X0025617Y0039856D01*
X0025464Y0039868D01*
X0025312Y0039884D01*
X0025159Y0039904D01*
X0025008Y0039928D01*
X0024857Y0039956D01*
X0024707Y0039987D01*
X0024558Y0040023D01*
X0024410Y0040062D01*
X0024263Y0040105D01*
X0024117Y0040152D01*
X0023972Y0040203D01*
X0023829Y0040258D01*
X0023687Y0040316D01*
X0023547Y0040378D01*
X0023408Y0040443D01*
X0023271Y0040512D01*
X0023136Y0040585D01*
X0023003Y0040661D01*
X0022872Y0040741D01*
X0022743Y0040823D01*
X0022616Y0040910D01*
X0022491Y0040999D01*
X0022369Y0041092D01*
X0022250Y0041188D01*
X0022132Y0041287D01*
X0022018Y0041388D01*
X0021906Y0041493D01*
X0021797Y0041601D01*
X0021691Y0041712D01*
X0021587Y0041825D01*
X0021487Y0041941D01*
X0021389Y0042059D01*
X0021295Y0042180D01*
X0021204Y0042303D01*
X0021116Y0042429D01*
X0021032Y0042557D01*
X0020950Y0042687D01*
X0020873Y0042819D01*
X0020798Y0042953D01*
X0020727Y0043089D01*
X0020660Y0043227D01*
X0020596Y0043367D01*
X0020536Y0043508D01*
X0020480Y0043650D01*
X0020427Y0043794D01*
X0020378Y0043940D01*
X0020333Y0044086D01*
X0020292Y0044234D01*
X0020255Y0044382D01*
X0020221Y0044532D01*
X0020191Y0044683D01*
X0020166Y0044834D01*
X0020144Y0044985D01*
X0020126Y0045138D01*
X0020112Y0045290D01*
X0020102Y0045443D01*
X0020096Y0045597D01*
X0020094Y0045750D01*
X0020094Y0275750D02*
X0020096Y0275903D01*
X0020102Y0276057D01*
X0020112Y0276210D01*
X0020126Y0276362D01*
X0020144Y0276515D01*
X0020166Y0276666D01*
X0020191Y0276817D01*
X0020221Y0276968D01*
X0020255Y0277118D01*
X0020292Y0277266D01*
X0020333Y0277414D01*
X0020378Y0277560D01*
X0020427Y0277706D01*
X0020480Y0277850D01*
X0020536Y0277992D01*
X0020596Y0278133D01*
X0020660Y0278273D01*
X0020727Y0278411D01*
X0020798Y0278547D01*
X0020873Y0278681D01*
X0020950Y0278813D01*
X0021032Y0278943D01*
X0021116Y0279071D01*
X0021204Y0279197D01*
X0021295Y0279320D01*
X0021389Y0279441D01*
X0021487Y0279559D01*
X0021587Y0279675D01*
X0021691Y0279788D01*
X0021797Y0279899D01*
X0021906Y0280007D01*
X0022018Y0280112D01*
X0022132Y0280213D01*
X0022250Y0280312D01*
X0022369Y0280408D01*
X0022491Y0280501D01*
X0022616Y0280590D01*
X0022743Y0280677D01*
X0022872Y0280759D01*
X0023003Y0280839D01*
X0023136Y0280915D01*
X0023271Y0280988D01*
X0023408Y0281057D01*
X0023547Y0281122D01*
X0023687Y0281184D01*
X0023829Y0281242D01*
X0023972Y0281297D01*
X0024117Y0281348D01*
X0024263Y0281395D01*
X0024410Y0281438D01*
X0024558Y0281477D01*
X0024707Y0281513D01*
X0024857Y0281544D01*
X0025008Y0281572D01*
X0025159Y0281596D01*
X0025312Y0281616D01*
X0025464Y0281632D01*
X0025617Y0281644D01*
X0025770Y0281652D01*
X0025923Y0281656D01*
X0026077Y0281656D01*
X0026230Y0281652D01*
X0026383Y0281644D01*
X0026536Y0281632D01*
X0026688Y0281616D01*
X0026841Y0281596D01*
X0026992Y0281572D01*
X0027143Y0281544D01*
X0027293Y0281513D01*
X0027442Y0281477D01*
X0027590Y0281438D01*
X0027737Y0281395D01*
X0027883Y0281348D01*
X0028028Y0281297D01*
X0028171Y0281242D01*
X0028313Y0281184D01*
X0028453Y0281122D01*
X0028592Y0281057D01*
X0028729Y0280988D01*
X0028864Y0280915D01*
X0028997Y0280839D01*
X0029128Y0280759D01*
X0029257Y0280677D01*
X0029384Y0280590D01*
X0029509Y0280501D01*
X0029631Y0280408D01*
X0029750Y0280312D01*
X0029868Y0280213D01*
X0029982Y0280112D01*
X0030094Y0280007D01*
X0030203Y0279899D01*
X0030309Y0279788D01*
X0030413Y0279675D01*
X0030513Y0279559D01*
X0030611Y0279441D01*
X0030705Y0279320D01*
X0030796Y0279197D01*
X0030884Y0279071D01*
X0030968Y0278943D01*
X0031050Y0278813D01*
X0031127Y0278681D01*
X0031202Y0278547D01*
X0031273Y0278411D01*
X0031340Y0278273D01*
X0031404Y0278133D01*
X0031464Y0277992D01*
X0031520Y0277850D01*
X0031573Y0277706D01*
X0031622Y0277560D01*
X0031667Y0277414D01*
X0031708Y0277266D01*
X0031745Y0277118D01*
X0031779Y0276968D01*
X0031809Y0276817D01*
X0031834Y0276666D01*
X0031856Y0276515D01*
X0031874Y0276362D01*
X0031888Y0276210D01*
X0031898Y0276057D01*
X0031904Y0275903D01*
X0031906Y0275750D01*
X0031904Y0275597D01*
X0031898Y0275443D01*
X0031888Y0275290D01*
X0031874Y0275138D01*
X0031856Y0274985D01*
X0031834Y0274834D01*
X0031809Y0274683D01*
X0031779Y0274532D01*
X0031745Y0274382D01*
X0031708Y0274234D01*
X0031667Y0274086D01*
X0031622Y0273940D01*
X0031573Y0273794D01*
X0031520Y0273650D01*
X0031464Y0273508D01*
X0031404Y0273367D01*
X0031340Y0273227D01*
X0031273Y0273089D01*
X0031202Y0272953D01*
X0031127Y0272819D01*
X0031050Y0272687D01*
X0030968Y0272557D01*
X0030884Y0272429D01*
X0030796Y0272303D01*
X0030705Y0272180D01*
X0030611Y0272059D01*
X0030513Y0271941D01*
X0030413Y0271825D01*
X0030309Y0271712D01*
X0030203Y0271601D01*
X0030094Y0271493D01*
X0029982Y0271388D01*
X0029868Y0271287D01*
X0029750Y0271188D01*
X0029631Y0271092D01*
X0029509Y0270999D01*
X0029384Y0270910D01*
X0029257Y0270823D01*
X0029128Y0270741D01*
X0028997Y0270661D01*
X0028864Y0270585D01*
X0028729Y0270512D01*
X0028592Y0270443D01*
X0028453Y0270378D01*
X0028313Y0270316D01*
X0028171Y0270258D01*
X0028028Y0270203D01*
X0027883Y0270152D01*
X0027737Y0270105D01*
X0027590Y0270062D01*
X0027442Y0270023D01*
X0027293Y0269987D01*
X0027143Y0269956D01*
X0026992Y0269928D01*
X0026841Y0269904D01*
X0026688Y0269884D01*
X0026536Y0269868D01*
X0026383Y0269856D01*
X0026230Y0269848D01*
X0026077Y0269844D01*
X0025923Y0269844D01*
X0025770Y0269848D01*
X0025617Y0269856D01*
X0025464Y0269868D01*
X0025312Y0269884D01*
X0025159Y0269904D01*
X0025008Y0269928D01*
X0024857Y0269956D01*
X0024707Y0269987D01*
X0024558Y0270023D01*
X0024410Y0270062D01*
X0024263Y0270105D01*
X0024117Y0270152D01*
X0023972Y0270203D01*
X0023829Y0270258D01*
X0023687Y0270316D01*
X0023547Y0270378D01*
X0023408Y0270443D01*
X0023271Y0270512D01*
X0023136Y0270585D01*
X0023003Y0270661D01*
X0022872Y0270741D01*
X0022743Y0270823D01*
X0022616Y0270910D01*
X0022491Y0270999D01*
X0022369Y0271092D01*
X0022250Y0271188D01*
X0022132Y0271287D01*
X0022018Y0271388D01*
X0021906Y0271493D01*
X0021797Y0271601D01*
X0021691Y0271712D01*
X0021587Y0271825D01*
X0021487Y0271941D01*
X0021389Y0272059D01*
X0021295Y0272180D01*
X0021204Y0272303D01*
X0021116Y0272429D01*
X0021032Y0272557D01*
X0020950Y0272687D01*
X0020873Y0272819D01*
X0020798Y0272953D01*
X0020727Y0273089D01*
X0020660Y0273227D01*
X0020596Y0273367D01*
X0020536Y0273508D01*
X0020480Y0273650D01*
X0020427Y0273794D01*
X0020378Y0273940D01*
X0020333Y0274086D01*
X0020292Y0274234D01*
X0020255Y0274382D01*
X0020221Y0274532D01*
X0020191Y0274683D01*
X0020166Y0274834D01*
X0020144Y0274985D01*
X0020126Y0275138D01*
X0020112Y0275290D01*
X0020102Y0275443D01*
X0020096Y0275597D01*
X0020094Y0275750D01*
X0345094Y0275750D02*
X0345096Y0275903D01*
X0345102Y0276057D01*
X0345112Y0276210D01*
X0345126Y0276362D01*
X0345144Y0276515D01*
X0345166Y0276666D01*
X0345191Y0276817D01*
X0345221Y0276968D01*
X0345255Y0277118D01*
X0345292Y0277266D01*
X0345333Y0277414D01*
X0345378Y0277560D01*
X0345427Y0277706D01*
X0345480Y0277850D01*
X0345536Y0277992D01*
X0345596Y0278133D01*
X0345660Y0278273D01*
X0345727Y0278411D01*
X0345798Y0278547D01*
X0345873Y0278681D01*
X0345950Y0278813D01*
X0346032Y0278943D01*
X0346116Y0279071D01*
X0346204Y0279197D01*
X0346295Y0279320D01*
X0346389Y0279441D01*
X0346487Y0279559D01*
X0346587Y0279675D01*
X0346691Y0279788D01*
X0346797Y0279899D01*
X0346906Y0280007D01*
X0347018Y0280112D01*
X0347132Y0280213D01*
X0347250Y0280312D01*
X0347369Y0280408D01*
X0347491Y0280501D01*
X0347616Y0280590D01*
X0347743Y0280677D01*
X0347872Y0280759D01*
X0348003Y0280839D01*
X0348136Y0280915D01*
X0348271Y0280988D01*
X0348408Y0281057D01*
X0348547Y0281122D01*
X0348687Y0281184D01*
X0348829Y0281242D01*
X0348972Y0281297D01*
X0349117Y0281348D01*
X0349263Y0281395D01*
X0349410Y0281438D01*
X0349558Y0281477D01*
X0349707Y0281513D01*
X0349857Y0281544D01*
X0350008Y0281572D01*
X0350159Y0281596D01*
X0350312Y0281616D01*
X0350464Y0281632D01*
X0350617Y0281644D01*
X0350770Y0281652D01*
X0350923Y0281656D01*
X0351077Y0281656D01*
X0351230Y0281652D01*
X0351383Y0281644D01*
X0351536Y0281632D01*
X0351688Y0281616D01*
X0351841Y0281596D01*
X0351992Y0281572D01*
X0352143Y0281544D01*
X0352293Y0281513D01*
X0352442Y0281477D01*
X0352590Y0281438D01*
X0352737Y0281395D01*
X0352883Y0281348D01*
X0353028Y0281297D01*
X0353171Y0281242D01*
X0353313Y0281184D01*
X0353453Y0281122D01*
X0353592Y0281057D01*
X0353729Y0280988D01*
X0353864Y0280915D01*
X0353997Y0280839D01*
X0354128Y0280759D01*
X0354257Y0280677D01*
X0354384Y0280590D01*
X0354509Y0280501D01*
X0354631Y0280408D01*
X0354750Y0280312D01*
X0354868Y0280213D01*
X0354982Y0280112D01*
X0355094Y0280007D01*
X0355203Y0279899D01*
X0355309Y0279788D01*
X0355413Y0279675D01*
X0355513Y0279559D01*
X0355611Y0279441D01*
X0355705Y0279320D01*
X0355796Y0279197D01*
X0355884Y0279071D01*
X0355968Y0278943D01*
X0356050Y0278813D01*
X0356127Y0278681D01*
X0356202Y0278547D01*
X0356273Y0278411D01*
X0356340Y0278273D01*
X0356404Y0278133D01*
X0356464Y0277992D01*
X0356520Y0277850D01*
X0356573Y0277706D01*
X0356622Y0277560D01*
X0356667Y0277414D01*
X0356708Y0277266D01*
X0356745Y0277118D01*
X0356779Y0276968D01*
X0356809Y0276817D01*
X0356834Y0276666D01*
X0356856Y0276515D01*
X0356874Y0276362D01*
X0356888Y0276210D01*
X0356898Y0276057D01*
X0356904Y0275903D01*
X0356906Y0275750D01*
X0356904Y0275597D01*
X0356898Y0275443D01*
X0356888Y0275290D01*
X0356874Y0275138D01*
X0356856Y0274985D01*
X0356834Y0274834D01*
X0356809Y0274683D01*
X0356779Y0274532D01*
X0356745Y0274382D01*
X0356708Y0274234D01*
X0356667Y0274086D01*
X0356622Y0273940D01*
X0356573Y0273794D01*
X0356520Y0273650D01*
X0356464Y0273508D01*
X0356404Y0273367D01*
X0356340Y0273227D01*
X0356273Y0273089D01*
X0356202Y0272953D01*
X0356127Y0272819D01*
X0356050Y0272687D01*
X0355968Y0272557D01*
X0355884Y0272429D01*
X0355796Y0272303D01*
X0355705Y0272180D01*
X0355611Y0272059D01*
X0355513Y0271941D01*
X0355413Y0271825D01*
X0355309Y0271712D01*
X0355203Y0271601D01*
X0355094Y0271493D01*
X0354982Y0271388D01*
X0354868Y0271287D01*
X0354750Y0271188D01*
X0354631Y0271092D01*
X0354509Y0270999D01*
X0354384Y0270910D01*
X0354257Y0270823D01*
X0354128Y0270741D01*
X0353997Y0270661D01*
X0353864Y0270585D01*
X0353729Y0270512D01*
X0353592Y0270443D01*
X0353453Y0270378D01*
X0353313Y0270316D01*
X0353171Y0270258D01*
X0353028Y0270203D01*
X0352883Y0270152D01*
X0352737Y0270105D01*
X0352590Y0270062D01*
X0352442Y0270023D01*
X0352293Y0269987D01*
X0352143Y0269956D01*
X0351992Y0269928D01*
X0351841Y0269904D01*
X0351688Y0269884D01*
X0351536Y0269868D01*
X0351383Y0269856D01*
X0351230Y0269848D01*
X0351077Y0269844D01*
X0350923Y0269844D01*
X0350770Y0269848D01*
X0350617Y0269856D01*
X0350464Y0269868D01*
X0350312Y0269884D01*
X0350159Y0269904D01*
X0350008Y0269928D01*
X0349857Y0269956D01*
X0349707Y0269987D01*
X0349558Y0270023D01*
X0349410Y0270062D01*
X0349263Y0270105D01*
X0349117Y0270152D01*
X0348972Y0270203D01*
X0348829Y0270258D01*
X0348687Y0270316D01*
X0348547Y0270378D01*
X0348408Y0270443D01*
X0348271Y0270512D01*
X0348136Y0270585D01*
X0348003Y0270661D01*
X0347872Y0270741D01*
X0347743Y0270823D01*
X0347616Y0270910D01*
X0347491Y0270999D01*
X0347369Y0271092D01*
X0347250Y0271188D01*
X0347132Y0271287D01*
X0347018Y0271388D01*
X0346906Y0271493D01*
X0346797Y0271601D01*
X0346691Y0271712D01*
X0346587Y0271825D01*
X0346487Y0271941D01*
X0346389Y0272059D01*
X0346295Y0272180D01*
X0346204Y0272303D01*
X0346116Y0272429D01*
X0346032Y0272557D01*
X0345950Y0272687D01*
X0345873Y0272819D01*
X0345798Y0272953D01*
X0345727Y0273089D01*
X0345660Y0273227D01*
X0345596Y0273367D01*
X0345536Y0273508D01*
X0345480Y0273650D01*
X0345427Y0273794D01*
X0345378Y0273940D01*
X0345333Y0274086D01*
X0345292Y0274234D01*
X0345255Y0274382D01*
X0345221Y0274532D01*
X0345191Y0274683D01*
X0345166Y0274834D01*
X0345144Y0274985D01*
X0345126Y0275138D01*
X0345112Y0275290D01*
X0345102Y0275443D01*
X0345096Y0275597D01*
X0345094Y0275750D01*
X0345094Y0045750D02*
X0345096Y0045903D01*
X0345102Y0046057D01*
X0345112Y0046210D01*
X0345126Y0046362D01*
X0345144Y0046515D01*
X0345166Y0046666D01*
X0345191Y0046817D01*
X0345221Y0046968D01*
X0345255Y0047118D01*
X0345292Y0047266D01*
X0345333Y0047414D01*
X0345378Y0047560D01*
X0345427Y0047706D01*
X0345480Y0047850D01*
X0345536Y0047992D01*
X0345596Y0048133D01*
X0345660Y0048273D01*
X0345727Y0048411D01*
X0345798Y0048547D01*
X0345873Y0048681D01*
X0345950Y0048813D01*
X0346032Y0048943D01*
X0346116Y0049071D01*
X0346204Y0049197D01*
X0346295Y0049320D01*
X0346389Y0049441D01*
X0346487Y0049559D01*
X0346587Y0049675D01*
X0346691Y0049788D01*
X0346797Y0049899D01*
X0346906Y0050007D01*
X0347018Y0050112D01*
X0347132Y0050213D01*
X0347250Y0050312D01*
X0347369Y0050408D01*
X0347491Y0050501D01*
X0347616Y0050590D01*
X0347743Y0050677D01*
X0347872Y0050759D01*
X0348003Y0050839D01*
X0348136Y0050915D01*
X0348271Y0050988D01*
X0348408Y0051057D01*
X0348547Y0051122D01*
X0348687Y0051184D01*
X0348829Y0051242D01*
X0348972Y0051297D01*
X0349117Y0051348D01*
X0349263Y0051395D01*
X0349410Y0051438D01*
X0349558Y0051477D01*
X0349707Y0051513D01*
X0349857Y0051544D01*
X0350008Y0051572D01*
X0350159Y0051596D01*
X0350312Y0051616D01*
X0350464Y0051632D01*
X0350617Y0051644D01*
X0350770Y0051652D01*
X0350923Y0051656D01*
X0351077Y0051656D01*
X0351230Y0051652D01*
X0351383Y0051644D01*
X0351536Y0051632D01*
X0351688Y0051616D01*
X0351841Y0051596D01*
X0351992Y0051572D01*
X0352143Y0051544D01*
X0352293Y0051513D01*
X0352442Y0051477D01*
X0352590Y0051438D01*
X0352737Y0051395D01*
X0352883Y0051348D01*
X0353028Y0051297D01*
X0353171Y0051242D01*
X0353313Y0051184D01*
X0353453Y0051122D01*
X0353592Y0051057D01*
X0353729Y0050988D01*
X0353864Y0050915D01*
X0353997Y0050839D01*
X0354128Y0050759D01*
X0354257Y0050677D01*
X0354384Y0050590D01*
X0354509Y0050501D01*
X0354631Y0050408D01*
X0354750Y0050312D01*
X0354868Y0050213D01*
X0354982Y0050112D01*
X0355094Y0050007D01*
X0355203Y0049899D01*
X0355309Y0049788D01*
X0355413Y0049675D01*
X0355513Y0049559D01*
X0355611Y0049441D01*
X0355705Y0049320D01*
X0355796Y0049197D01*
X0355884Y0049071D01*
X0355968Y0048943D01*
X0356050Y0048813D01*
X0356127Y0048681D01*
X0356202Y0048547D01*
X0356273Y0048411D01*
X0356340Y0048273D01*
X0356404Y0048133D01*
X0356464Y0047992D01*
X0356520Y0047850D01*
X0356573Y0047706D01*
X0356622Y0047560D01*
X0356667Y0047414D01*
X0356708Y0047266D01*
X0356745Y0047118D01*
X0356779Y0046968D01*
X0356809Y0046817D01*
X0356834Y0046666D01*
X0356856Y0046515D01*
X0356874Y0046362D01*
X0356888Y0046210D01*
X0356898Y0046057D01*
X0356904Y0045903D01*
X0356906Y0045750D01*
X0356904Y0045597D01*
X0356898Y0045443D01*
X0356888Y0045290D01*
X0356874Y0045138D01*
X0356856Y0044985D01*
X0356834Y0044834D01*
X0356809Y0044683D01*
X0356779Y0044532D01*
X0356745Y0044382D01*
X0356708Y0044234D01*
X0356667Y0044086D01*
X0356622Y0043940D01*
X0356573Y0043794D01*
X0356520Y0043650D01*
X0356464Y0043508D01*
X0356404Y0043367D01*
X0356340Y0043227D01*
X0356273Y0043089D01*
X0356202Y0042953D01*
X0356127Y0042819D01*
X0356050Y0042687D01*
X0355968Y0042557D01*
X0355884Y0042429D01*
X0355796Y0042303D01*
X0355705Y0042180D01*
X0355611Y0042059D01*
X0355513Y0041941D01*
X0355413Y0041825D01*
X0355309Y0041712D01*
X0355203Y0041601D01*
X0355094Y0041493D01*
X0354982Y0041388D01*
X0354868Y0041287D01*
X0354750Y0041188D01*
X0354631Y0041092D01*
X0354509Y0040999D01*
X0354384Y0040910D01*
X0354257Y0040823D01*
X0354128Y0040741D01*
X0353997Y0040661D01*
X0353864Y0040585D01*
X0353729Y0040512D01*
X0353592Y0040443D01*
X0353453Y0040378D01*
X0353313Y0040316D01*
X0353171Y0040258D01*
X0353028Y0040203D01*
X0352883Y0040152D01*
X0352737Y0040105D01*
X0352590Y0040062D01*
X0352442Y0040023D01*
X0352293Y0039987D01*
X0352143Y0039956D01*
X0351992Y0039928D01*
X0351841Y0039904D01*
X0351688Y0039884D01*
X0351536Y0039868D01*
X0351383Y0039856D01*
X0351230Y0039848D01*
X0351077Y0039844D01*
X0350923Y0039844D01*
X0350770Y0039848D01*
X0350617Y0039856D01*
X0350464Y0039868D01*
X0350312Y0039884D01*
X0350159Y0039904D01*
X0350008Y0039928D01*
X0349857Y0039956D01*
X0349707Y0039987D01*
X0349558Y0040023D01*
X0349410Y0040062D01*
X0349263Y0040105D01*
X0349117Y0040152D01*
X0348972Y0040203D01*
X0348829Y0040258D01*
X0348687Y0040316D01*
X0348547Y0040378D01*
X0348408Y0040443D01*
X0348271Y0040512D01*
X0348136Y0040585D01*
X0348003Y0040661D01*
X0347872Y0040741D01*
X0347743Y0040823D01*
X0347616Y0040910D01*
X0347491Y0040999D01*
X0347369Y0041092D01*
X0347250Y0041188D01*
X0347132Y0041287D01*
X0347018Y0041388D01*
X0346906Y0041493D01*
X0346797Y0041601D01*
X0346691Y0041712D01*
X0346587Y0041825D01*
X0346487Y0041941D01*
X0346389Y0042059D01*
X0346295Y0042180D01*
X0346204Y0042303D01*
X0346116Y0042429D01*
X0346032Y0042557D01*
X0345950Y0042687D01*
X0345873Y0042819D01*
X0345798Y0042953D01*
X0345727Y0043089D01*
X0345660Y0043227D01*
X0345596Y0043367D01*
X0345536Y0043508D01*
X0345480Y0043650D01*
X0345427Y0043794D01*
X0345378Y0043940D01*
X0345333Y0044086D01*
X0345292Y0044234D01*
X0345255Y0044382D01*
X0345221Y0044532D01*
X0345191Y0044683D01*
X0345166Y0044834D01*
X0345144Y0044985D01*
X0345126Y0045138D01*
X0345112Y0045290D01*
X0345102Y0045443D01*
X0345096Y0045597D01*
X0345094Y0045750D01*
M02*
