G75*
%MOIN*%
%OFA0B0*%
%FSLAX25Y25*%
%IPPOS*%
%LPD*%
%AMOC8*
5,1,8,0,0,1.08239X$1,22.5*
%
%ADD10C,0.00000*%
%ADD11C,0.07400*%
%ADD12OC8,0.05200*%
%ADD13OC8,0.06000*%
%ADD14C,0.08850*%
%ADD15C,0.05150*%
%ADD16C,0.05150*%
%ADD17R,0.07400X0.07400*%
%ADD18OC8,0.11811*%
%ADD19C,0.00600*%
%ADD20C,0.02978*%
D10*
X0001000Y0020750D02*
X0001000Y0296341D01*
X0378953Y0296341D01*
X0378953Y0020750D01*
X0001000Y0020750D01*
D11*
X0109071Y0064136D03*
X0119071Y0064136D03*
X0082063Y0107837D03*
X0072063Y0107837D03*
X0065055Y0156577D03*
X0055055Y0156577D03*
X0072063Y0208191D03*
X0082063Y0208191D03*
X0112063Y0261892D03*
X0122063Y0261892D03*
X0181039Y0280593D03*
X0191039Y0280593D03*
X0256000Y0261892D03*
X0266000Y0261892D03*
X0296000Y0208191D03*
X0306000Y0208191D03*
X0307024Y0156577D03*
X0317024Y0156577D03*
X0306000Y0107837D03*
X0296000Y0107837D03*
X0271000Y0064136D03*
X0261000Y0064136D03*
X0191039Y0040435D03*
X0181039Y0040435D03*
X0056000Y0275750D03*
X0046000Y0275750D03*
D12*
X0081000Y0275750D03*
X0081000Y0245750D03*
D13*
X0084900Y0035850D03*
X0067100Y0035850D03*
D14*
X0062200Y0045650D03*
X0089800Y0045650D03*
D15*
X0148425Y0085750D02*
X0153575Y0085750D01*
X0153575Y0095750D02*
X0148425Y0095750D01*
X0148425Y0105750D02*
X0153575Y0105750D01*
X0153575Y0115750D02*
X0148425Y0115750D01*
X0148425Y0125750D02*
X0153575Y0125750D01*
X0153575Y0135750D02*
X0148425Y0135750D01*
X0148425Y0145750D02*
X0153575Y0145750D01*
X0153575Y0155750D02*
X0148425Y0155750D01*
X0148425Y0165750D02*
X0153575Y0165750D01*
X0153575Y0175750D02*
X0148425Y0175750D01*
X0148425Y0185750D02*
X0153575Y0185750D01*
X0153575Y0195750D02*
X0148425Y0195750D01*
X0148425Y0205750D02*
X0153575Y0205750D01*
X0153575Y0215750D02*
X0148425Y0215750D01*
X0148425Y0225750D02*
X0153575Y0225750D01*
X0208425Y0225750D02*
X0213575Y0225750D01*
X0213575Y0215750D02*
X0208425Y0215750D01*
X0208425Y0205750D02*
X0213575Y0205750D01*
X0213575Y0195750D02*
X0208425Y0195750D01*
X0208425Y0185750D02*
X0213575Y0185750D01*
X0213575Y0175750D02*
X0208425Y0175750D01*
X0208425Y0165750D02*
X0213575Y0165750D01*
X0213575Y0155750D02*
X0208425Y0155750D01*
X0208425Y0145750D02*
X0213575Y0145750D01*
X0213575Y0135750D02*
X0208425Y0135750D01*
X0208425Y0125750D02*
X0213575Y0125750D01*
X0213575Y0115750D02*
X0208425Y0115750D01*
X0208425Y0105750D02*
X0213575Y0105750D01*
X0213575Y0095750D02*
X0208425Y0095750D01*
X0208425Y0085750D02*
X0213575Y0085750D01*
D16*
X0191000Y0080750D03*
X0191000Y0090750D03*
X0181000Y0090750D03*
X0171000Y0090750D03*
X0171000Y0080750D03*
X0181000Y0080750D03*
D17*
X0300843Y0038309D03*
X0310685Y0038309D03*
X0320528Y0038309D03*
D18*
X0329583Y0051301D03*
X0291000Y0051301D03*
D19*
X0285400Y0042950D02*
X0316000Y0042950D01*
X0320200Y0038750D01*
X0320528Y0038309D01*
X0285400Y0042950D02*
X0266200Y0062150D01*
X0266200Y0065750D01*
X0216400Y0115550D01*
X0211000Y0115550D01*
X0211000Y0115750D01*
X0211000Y0115550D01*
X0191200Y0095750D01*
X0158800Y0095750D02*
X0155200Y0099350D01*
X0146800Y0099350D01*
X0119200Y0071750D01*
X0119200Y0064550D01*
X0119071Y0064136D01*
X0118600Y0063950D01*
X0115600Y0063950D01*
X0110800Y0059150D01*
X0107200Y0059150D01*
X0082600Y0083750D01*
X0082600Y0107750D01*
X0082063Y0107837D01*
X0072400Y0108350D02*
X0072063Y0107837D01*
X0072400Y0108350D02*
X0093400Y0129350D01*
X0152200Y0129350D01*
X0208600Y0185750D01*
X0211000Y0185750D01*
X0211000Y0195350D02*
X0211000Y0195750D01*
X0211000Y0195350D02*
X0188200Y0195350D01*
X0154600Y0161750D01*
X0060400Y0161750D01*
X0055600Y0156950D01*
X0055055Y0156577D01*
X0050200Y0154550D02*
X0050200Y0176150D01*
X0082000Y0207950D01*
X0082063Y0208191D01*
X0085000Y0212150D02*
X0083800Y0213350D01*
X0077200Y0213350D01*
X0072400Y0208550D01*
X0072063Y0208191D01*
X0085000Y0212150D02*
X0152200Y0212150D01*
X0158200Y0206150D01*
X0211000Y0206150D01*
X0211000Y0205750D01*
X0211000Y0215750D02*
X0169000Y0215750D01*
X0127600Y0257150D01*
X0116800Y0257150D01*
X0112600Y0261350D01*
X0112063Y0261892D01*
X0081000Y0275750D02*
X0080800Y0275750D01*
X0056200Y0275750D01*
X0056000Y0275750D01*
X0181039Y0280593D02*
X0181600Y0280550D01*
X0211000Y0251150D01*
X0211000Y0225950D01*
X0211000Y0225750D01*
X0265600Y0261950D02*
X0266000Y0261892D01*
X0266200Y0261350D01*
X0266200Y0248150D01*
X0305800Y0208550D01*
X0306000Y0208191D01*
X0306400Y0207950D01*
X0306400Y0167150D01*
X0316600Y0156950D01*
X0317024Y0156577D01*
X0316600Y0156350D01*
X0316600Y0118550D01*
X0306400Y0108350D01*
X0306000Y0107837D01*
X0305800Y0107750D01*
X0271000Y0072950D01*
X0271000Y0064550D01*
X0271000Y0064136D01*
X0296000Y0107837D02*
X0295600Y0108350D01*
X0258400Y0145550D01*
X0211000Y0145550D01*
X0211000Y0145750D01*
X0209800Y0152150D02*
X0239800Y0152150D01*
X0295600Y0207950D01*
X0296000Y0208191D01*
X0265600Y0261950D02*
X0247000Y0280550D01*
X0191200Y0280550D01*
X0191039Y0280593D01*
X0211000Y0175750D02*
X0211000Y0175550D01*
X0211000Y0173750D01*
X0157600Y0120350D01*
X0157600Y0114350D01*
X0152800Y0109550D01*
X0146800Y0109550D01*
X0109600Y0072350D01*
X0109600Y0064550D01*
X0109071Y0064136D01*
X0158800Y0056150D02*
X0158800Y0095750D01*
X0184600Y0137150D02*
X0184600Y0043550D01*
X0181600Y0040550D01*
X0181039Y0040435D01*
X0179200Y0035750D02*
X0158800Y0056150D01*
X0179200Y0035750D02*
X0183400Y0035750D01*
X0187600Y0039950D01*
X0190600Y0039950D01*
X0191039Y0040435D01*
X0211000Y0125750D02*
X0211000Y0128150D01*
X0204400Y0134750D01*
X0204400Y0146750D01*
X0209800Y0152150D01*
X0211000Y0163550D02*
X0184600Y0137150D01*
X0211000Y0163550D02*
X0211000Y0165350D01*
X0211000Y0165750D01*
X0065055Y0156577D02*
X0064600Y0156350D01*
X0061600Y0156350D01*
X0056800Y0151550D01*
X0053200Y0151550D01*
X0050200Y0154550D01*
D20*
X0191200Y0095750D03*
M02*
